<svg width="624" height="66" viewBox="0 0 624 66" fill="none" xmlns="http://www.w3.org/2000/svg">
<g filter="url(#filter0_d_2_857)">
<rect x="2" y="1" width="620" height="62" rx="8" fill="black" shape-rendering="crispEdges"/>
<path d="M238.679 29.1847H236.463C236.378 28.7112 236.219 28.2945 235.987 27.9347C235.755 27.5748 235.471 27.2694 235.135 27.0185C234.799 26.7675 234.422 26.5781 234.006 26.4503C233.594 26.3224 233.156 26.2585 232.692 26.2585C231.854 26.2585 231.103 26.4692 230.44 26.8906C229.782 27.312 229.261 27.9299 228.878 28.7443C228.499 29.5587 228.31 30.553 228.31 31.7273C228.31 32.911 228.499 33.91 228.878 34.7244C229.261 35.5388 229.785 36.1544 230.447 36.571C231.11 36.9877 231.856 37.196 232.685 37.196C233.144 37.196 233.58 37.1345 233.991 37.0114C234.408 36.8835 234.785 36.6965 235.121 36.4503C235.457 36.2041 235.741 35.9034 235.973 35.5483C236.21 35.1884 236.373 34.7765 236.463 34.3125L238.679 34.3196C238.561 35.0346 238.331 35.6927 237.99 36.294C237.654 36.8906 237.221 37.4067 236.69 37.8423C236.165 38.2732 235.563 38.607 234.886 38.8438C234.209 39.0805 233.471 39.1989 232.67 39.1989C231.411 39.1989 230.289 38.9006 229.304 38.304C228.319 37.7027 227.543 36.8433 226.974 35.7259C226.411 34.6084 226.129 33.2756 226.129 31.7273C226.129 30.1742 226.413 28.8414 226.982 27.7287C227.55 26.6113 228.326 25.7543 229.311 25.1577C230.296 24.5563 231.416 24.2557 232.67 24.2557C233.442 24.2557 234.162 24.367 234.83 24.5895C235.502 24.8073 236.106 25.1293 236.641 25.5554C237.176 25.9768 237.618 26.4929 237.969 27.1037C238.319 27.7098 238.556 28.4034 238.679 29.1847ZM245.73 39.2202C244.707 39.2202 243.815 38.9858 243.052 38.517C242.29 38.0483 241.698 37.3925 241.277 36.5497C240.855 35.7069 240.645 34.7221 240.645 33.5952C240.645 32.4635 240.855 31.474 241.277 30.6264C241.698 29.7789 242.29 29.1207 243.052 28.652C243.815 28.1832 244.707 27.9489 245.73 27.9489C246.752 27.9489 247.645 28.1832 248.407 28.652C249.17 29.1207 249.761 29.7789 250.183 30.6264C250.604 31.474 250.815 32.4635 250.815 33.5952C250.815 34.7221 250.604 35.7069 250.183 36.5497C249.761 37.3925 249.17 38.0483 248.407 38.517C247.645 38.9858 246.752 39.2202 245.73 39.2202ZM245.737 37.4375C246.4 37.4375 246.949 37.2623 247.385 36.9119C247.82 36.5616 248.142 36.0952 248.35 35.5128C248.564 34.9304 248.67 34.2888 248.67 33.5881C248.67 32.892 248.564 32.2528 248.35 31.6705C248.142 31.0833 247.82 30.6122 247.385 30.2571C246.949 29.902 246.4 29.7244 245.737 29.7244C245.069 29.7244 244.515 29.902 244.075 30.2571C243.639 30.6122 243.315 31.0833 243.102 31.6705C242.894 32.2528 242.789 32.892 242.789 33.5881C242.789 34.2888 242.894 34.9304 243.102 35.5128C243.315 36.0952 243.639 36.5616 244.075 36.9119C244.515 37.2623 245.069 37.4375 245.737 37.4375ZM252.539 36.1165H254.712C254.741 36.5616 254.942 36.9048 255.316 37.1463C255.695 37.3878 256.185 37.5085 256.786 37.5085C257.397 37.5085 257.918 37.3783 258.349 37.1179C258.78 36.8527 258.995 36.4432 258.995 35.8892C258.995 35.5578 258.912 35.2689 258.746 35.0227C258.585 34.7718 258.356 34.5777 258.058 34.4403C257.764 34.303 257.416 34.2344 257.013 34.2344H255.238V32.5653H257.013C257.615 32.5653 258.065 32.428 258.363 32.1534C258.661 31.8788 258.81 31.5355 258.81 31.1236C258.81 30.6785 258.649 30.321 258.327 30.0511C258.01 29.7765 257.567 29.6392 256.999 29.6392C256.422 29.6392 255.941 29.7694 255.558 30.0298C255.174 30.2855 254.973 30.617 254.954 31.0241H252.809C252.823 30.4134 253.008 29.8783 253.363 29.419C253.723 28.955 254.206 28.5952 254.812 28.3395C255.423 28.0791 256.116 27.9489 256.893 27.9489C257.702 27.9489 258.403 28.0791 258.995 28.3395C259.587 28.5999 260.044 28.9598 260.366 29.419C260.692 29.8783 260.856 30.4062 260.856 31.0028C260.856 31.6042 260.676 32.0966 260.316 32.4801C259.961 32.8589 259.497 33.1312 258.924 33.2969V33.4105C259.345 33.4389 259.719 33.5668 260.046 33.794C260.373 34.0213 260.629 34.322 260.813 34.696C260.998 35.0701 261.09 35.4938 261.09 35.9673C261.09 36.6349 260.906 37.2126 260.536 37.7003C260.172 38.188 259.665 38.5644 259.016 38.8295C258.372 39.09 257.636 39.2202 256.808 39.2202C256.003 39.2202 255.281 39.0947 254.641 38.8438C254.007 38.5881 253.503 38.2282 253.129 37.7642C252.759 37.3002 252.563 36.7509 252.539 36.1165ZM262.218 42.1463V37.1605H263.105C263.333 36.9522 263.525 36.7036 263.681 36.4148C263.842 36.1259 263.977 35.7827 264.086 35.3849C264.199 34.9872 264.294 34.5232 264.37 33.9929C264.445 33.4579 264.512 32.8471 264.569 32.1605L264.909 28.0909H272.324V37.1605H274V42.1463H271.926V39H264.32V42.1463H262.218ZM265.378 37.1605H270.25V29.9091H266.813L266.586 32.1605C266.477 33.3063 266.339 34.3007 266.174 35.1435C266.008 35.9815 265.743 36.6539 265.378 37.1605ZM279.251 39.2415C278.559 39.2415 277.934 39.1136 277.376 38.858C276.817 38.5975 276.374 38.2211 276.048 37.7287C275.726 37.2363 275.565 36.6326 275.565 35.9176C275.565 35.3021 275.683 34.7955 275.92 34.3977C276.156 34 276.476 33.6851 276.879 33.4531C277.281 33.2211 277.731 33.0459 278.228 32.9276C278.725 32.8092 279.232 32.7192 279.748 32.6577C280.401 32.5819 280.932 32.5204 281.339 32.473C281.746 32.4209 282.042 32.3381 282.227 32.2244C282.411 32.1108 282.504 31.9261 282.504 31.6705V31.6207C282.504 31.0005 282.328 30.5199 281.978 30.179C281.632 29.8381 281.116 29.6676 280.43 29.6676C279.715 29.6676 279.151 29.8262 278.739 30.1435C278.332 30.456 278.05 30.804 277.894 31.1875L275.898 30.733C276.135 30.0701 276.481 29.535 276.935 29.1278C277.395 28.7159 277.923 28.4176 278.519 28.233C279.116 28.0436 279.743 27.9489 280.401 27.9489C280.837 27.9489 281.299 28.0009 281.786 28.1051C282.279 28.2045 282.738 28.3892 283.164 28.6591C283.595 28.929 283.948 29.3149 284.222 29.8168C284.497 30.3139 284.634 30.9602 284.634 31.7557V39H282.56V37.5085H282.475C282.338 37.7831 282.132 38.053 281.857 38.3182C281.583 38.5833 281.23 38.8035 280.799 38.9787C280.368 39.1539 279.852 39.2415 279.251 39.2415ZM279.712 37.5369C280.299 37.5369 280.801 37.4209 281.218 37.1889C281.639 36.9569 281.959 36.6539 282.177 36.2798C282.399 35.901 282.511 35.4962 282.511 35.0653V33.6591C282.435 33.7348 282.288 33.8059 282.07 33.8722C281.857 33.9337 281.613 33.9882 281.339 34.0355C281.064 34.0781 280.797 34.1184 280.536 34.1562C280.276 34.1894 280.058 34.2178 279.883 34.2415C279.471 34.2936 279.094 34.3812 278.754 34.5043C278.417 34.6274 278.147 34.8049 277.944 35.0369C277.745 35.2642 277.646 35.5672 277.646 35.946C277.646 36.4716 277.84 36.8693 278.228 37.1392C278.616 37.4044 279.111 37.5369 279.712 37.5369ZM286.11 29.9233V28.0909H295.314V29.9233H291.756V39H289.682V29.9233H286.11ZM299.158 31.8409H302.326C303.661 31.8409 304.689 32.1723 305.408 32.8352C306.128 33.4981 306.488 34.3527 306.488 35.3991C306.488 36.081 306.327 36.6941 306.005 37.2386C305.683 37.7831 305.212 38.214 304.592 38.5312C303.971 38.8438 303.216 39 302.326 39H297.56V28.0909H299.641V37.1676H302.326C302.937 37.1676 303.439 37.009 303.832 36.6918C304.225 36.3698 304.421 35.9602 304.421 35.4631C304.421 34.9375 304.225 34.509 303.832 34.1776C303.439 33.8414 302.937 33.6733 302.326 33.6733H299.158V31.8409ZM314.162 39V28.0909H323.061V39H320.98V29.9233H316.229V39H314.162ZM325.9 43.0909V28.0909H327.974V29.8594H328.152C328.275 29.6321 328.452 29.3693 328.684 29.071C328.916 28.7727 329.238 28.5123 329.65 28.2898C330.062 28.0625 330.607 27.9489 331.284 27.9489C332.164 27.9489 332.95 28.1714 333.642 28.6165C334.333 29.0616 334.875 29.7031 335.268 30.5412C335.666 31.3793 335.865 32.3878 335.865 33.5668C335.865 34.7457 335.668 35.7566 335.275 36.5994C334.882 37.4375 334.342 38.0838 333.656 38.5384C332.969 38.9882 332.186 39.2131 331.305 39.2131C330.642 39.2131 330.1 39.1018 329.679 38.8793C329.262 38.6567 328.935 38.3963 328.699 38.098C328.462 37.7997 328.279 37.5346 328.152 37.3026H328.024V43.0909H325.9ZM327.981 33.5455C327.981 34.3125 328.092 34.9848 328.315 35.5625C328.538 36.1402 328.859 36.5923 329.281 36.919C329.702 37.241 330.218 37.402 330.829 37.402C331.464 37.402 331.994 37.2339 332.42 36.8977C332.846 36.5568 333.168 36.0952 333.386 35.5128C333.609 34.9304 333.72 34.2746 333.72 33.5455C333.72 32.8258 333.611 32.1795 333.393 31.6065C333.18 31.0336 332.858 30.5814 332.427 30.25C332.001 29.9186 331.468 29.7528 330.829 29.7528C330.214 29.7528 329.693 29.9115 329.267 30.2287C328.845 30.5459 328.526 30.9886 328.308 31.5568C328.09 32.125 327.981 32.7879 327.981 33.5455ZM342.839 39.2202C341.816 39.2202 340.924 38.9858 340.162 38.517C339.399 38.0483 338.807 37.3925 338.386 36.5497C337.965 35.7069 337.754 34.7221 337.754 33.5952C337.754 32.4635 337.965 31.474 338.386 30.6264C338.807 29.7789 339.399 29.1207 340.162 28.652C340.924 28.1832 341.816 27.9489 342.839 27.9489C343.862 27.9489 344.754 28.1832 345.517 28.652C346.279 29.1207 346.871 29.7789 347.292 30.6264C347.714 31.474 347.924 32.4635 347.924 33.5952C347.924 34.7221 347.714 35.7069 347.292 36.5497C346.871 37.3925 346.279 38.0483 345.517 38.517C344.754 38.9858 343.862 39.2202 342.839 39.2202ZM342.846 37.4375C343.509 37.4375 344.058 37.2623 344.494 36.9119C344.93 36.5616 345.252 36.0952 345.46 35.5128C345.673 34.9304 345.779 34.2888 345.779 33.5881C345.779 32.892 345.673 32.2528 345.46 31.6705C345.252 31.0833 344.93 30.6122 344.494 30.2571C344.058 29.902 343.509 29.7244 342.846 29.7244C342.179 29.7244 341.625 29.902 341.184 30.2571C340.749 30.6122 340.424 31.0833 340.211 31.6705C340.003 32.2528 339.899 32.892 339.899 33.5881C339.899 34.2888 340.003 34.9304 340.211 35.5128C340.424 36.0952 340.749 36.5616 341.184 36.9119C341.625 37.2623 342.179 37.4375 342.846 37.4375ZM354.989 42.7145V24.4545H357.113V42.7145H354.989ZM354.989 39.2202C354.218 39.2202 353.514 39.0876 352.88 38.8224C352.246 38.5526 351.699 38.169 351.239 37.6719C350.78 37.1747 350.425 36.5805 350.174 35.8892C349.928 35.1979 349.805 34.4332 349.805 33.5952C349.805 32.7476 349.928 31.9782 350.174 31.2869C350.425 30.5956 350.78 30.0014 351.239 29.5043C351.699 29.0071 352.246 28.6236 352.88 28.3537C353.514 28.0838 354.218 27.9489 354.989 27.9489H355.515V39.2202H354.989ZM354.989 37.4304H355.288V29.7386H354.989C354.478 29.7386 354.033 29.8428 353.654 30.0511C353.275 30.2547 352.96 30.5365 352.71 30.8963C352.459 31.2514 352.269 31.661 352.141 32.125C352.018 32.589 351.957 33.0791 351.957 33.5952C351.957 34.2865 352.068 34.9233 352.29 35.5057C352.513 36.0833 352.849 36.5497 353.299 36.9048C353.749 37.2552 354.312 37.4304 354.989 37.4304ZM357.113 39.2202H356.58V27.9489H357.113C357.885 27.9489 358.588 28.0838 359.222 28.3537C359.857 28.6236 360.401 29.0071 360.856 29.5043C361.315 30.0014 361.668 30.5956 361.914 31.2869C362.165 31.9782 362.29 32.7476 362.29 33.5952C362.29 34.4332 362.165 35.1979 361.914 35.8892C361.668 36.5805 361.315 37.1747 360.856 37.6719C360.401 38.169 359.857 38.5526 359.222 38.8224C358.588 39.0876 357.885 39.2202 357.113 39.2202ZM357.113 37.4304C357.624 37.4304 358.069 37.331 358.448 37.1321C358.827 36.9285 359.142 36.6491 359.393 36.294C359.644 35.9342 359.831 35.5246 359.954 35.0653C360.077 34.6013 360.138 34.1113 360.138 33.5952C360.138 32.9086 360.027 32.2741 359.805 31.6918C359.587 31.1046 359.253 30.6335 358.803 30.2784C358.353 29.9186 357.79 29.7386 357.113 29.7386H356.808V37.4304H357.113ZM366.731 36.0241L371.539 28.0909H373.826V39H371.745V31.0597L366.958 39H364.65V28.0909H366.731V36.0241ZM375.822 39L375.815 37.1605H376.206C376.509 37.1605 376.762 37.0966 376.966 36.9688C377.174 36.8362 377.344 36.6136 377.477 36.3011C377.609 35.9886 377.711 35.5578 377.782 35.0085C377.853 34.4545 377.905 33.7585 377.939 32.9205L378.13 28.0909H385.744V39H383.663V29.9233H380.098L379.927 33.6307C379.885 34.5303 379.792 35.3163 379.65 35.9886C379.513 36.661 379.312 37.2221 379.047 37.6719C378.781 38.117 378.44 38.4508 378.024 38.6733C377.607 38.8911 377.1 39 376.504 39H375.822ZM390.174 31.8409H393.342C394.677 31.8409 395.704 32.1723 396.424 32.8352C397.144 33.4981 397.504 34.3527 397.504 35.3991C397.504 36.081 397.343 36.6941 397.021 37.2386C396.699 37.7831 396.228 38.214 395.607 38.5312C394.987 38.8438 394.232 39 393.342 39H388.576V28.0909H390.657V37.1676H393.342C393.952 37.1676 394.454 37.009 394.847 36.6918C395.24 36.3698 395.437 35.9602 395.437 35.4631C395.437 34.9375 395.24 34.509 394.847 34.1776C394.454 33.8414 393.952 33.6733 393.342 33.6733H390.174V31.8409Z" fill="white"/>
</g>
<defs>
<filter id="filter0_d_2_857" x="0" y="0" width="624" height="66" filterUnits="userSpaceOnUse" color-interpolation-filters="sRGB">
<feFlood flood-opacity="0" result="BackgroundImageFix"/>
<feColorMatrix in="SourceAlpha" type="matrix" values="0 0 0 0 0 0 0 0 0 0 0 0 0 0 0 0 0 0 127 0" result="hardAlpha"/>
<feOffset dy="1"/>
<feGaussianBlur stdDeviation="1"/>
<feComposite in2="hardAlpha" operator="out"/>
<feColorMatrix type="matrix" values="0 0 0 0 0 0 0 0 0 0 0 0 0 0 0 0 0 0 0.05 0"/>
<feBlend mode="normal" in2="BackgroundImageFix" result="effect1_dropShadow_2_857"/>
<feBlend mode="normal" in="SourceGraphic" in2="effect1_dropShadow_2_857" result="shape"/>
</filter>
</defs>
</svg>
